# xmcd
#
# Track frame offsets: 
#        150
#        39750
#        90375
#        120225
#        156450
#        183300
#        223950
#        253350
#
# Disc length: 4112 seconds
#
# Revision: 1
# Processed by: cddbd v1.5.2PL0 Copyright (c) Steve Scherf et al.
# Submitted via: ExactAudioCopy v0.95b3
#
DISCID=68100e08
DTITLE=Rob Schneiderman - Dancing In The Dark
DYEAR=1997
DGENRE=Jazz
TTITLE0=Late Breakthrough
TTITLE1=Broken Dreams
TTITLE2=Dancing In The Dark
TTITLE3=Oval Essence
TTITLE4=Early Evening
TTITLE5=I Hear A Rhapsody
TTITLE6=Have You Heard?
TTITLE7=Oblivious
EXTD=
EXTT0=
EXTT1=
EXTT2=
EXTT3=
EXTT4=
EXTT5=
EXTT6=
EXTT7=
PLAYORDER=
